<svg width="20" height="22" viewBox="0 0 20 22" fill="none" xmlns="http://www.w3.org/2000/svg">
<path d="M10.3253 12.2508L12.0943 7.1209C12.8273 4.99512 14.1809 3.1644 15.976 1.87076C16.4201 1.55075 17.0525 1.79371 17.1978 2.34013C17.7852 4.54902 17.7071 6.86976 16.9741 8.99554L15.2051 14.1254C14.4721 16.2512 13.1185 18.0819 11.3234 19.3756C10.8793 19.6956 10.2468 19.4526 10.1016 18.9062C9.51423 16.6973 9.59225 14.3766 10.3253 12.2508Z" stroke="currentColor" stroke-width="1.056"/>
<line x1="0.528" y1="-0.528" x2="3.9011" y2="-0.528" transform="matrix(0.325819 -0.944844 0.934052 0.358829 14.9055 8.73596)" stroke="currentColor" stroke-width="1.056" stroke-linecap="round"/>
<line y1="-0.528" x2="5.30597" y2="-0.528" transform="matrix(0.934052 0.358829 -0.325819 0.944844 10.489 11.7777)" stroke="currentColor" stroke-width="1.056"/>
<line y1="-0.528" x2="5.30597" y2="-0.528" transform="matrix(0.934052 0.358829 -0.325818 0.944844 9.40497 14.9174)" stroke="currentColor" stroke-width="1.056"/>
<path d="M9.12234 8.87055L7.35336 14.0004C6.62031 16.1262 5.26674 17.9569 3.47161 19.2506C3.02754 19.5706 2.3951 19.3276 2.24981 18.7812C1.66248 16.5723 1.7405 14.2516 2.47355 12.1258L4.24254 6.99591C4.97559 4.87013 6.32915 3.03941 8.12428 1.74577C8.56835 1.42576 9.20079 1.66872 9.34608 2.21514C9.93341 4.42403 9.85539 6.74477 9.12234 8.87055Z" stroke="currentColor" stroke-width="1.056"/>
<path d="M7.53284 5.32629L7.88155 4.93888L7.71925 4.78571L7.50164 4.79293L7.53284 5.32629ZM9.99881 6.93705L7.88155 4.93888L7.18412 5.71371L9.30137 7.71188L9.99881 6.93705ZM7.50164 4.79293L4.66284 4.88717L4.72524 5.95389L7.56403 5.85966L7.50164 4.79293Z" fill="currentColor"/>
<path d="M3.9289 15.7899L3.58018 16.1773L3.74249 16.3304L3.9601 16.3232L3.9289 15.7899ZM6.7365 15.1623L3.8977 15.2565L3.9601 16.3232L6.79889 16.229L6.7365 15.1623ZM4.27762 15.4024L2.16036 13.4043L1.46293 14.1791L3.58018 16.1773L4.27762 15.4024Z" fill="currentColor"/>
<path d="M4.65107 13.6974L4.30235 14.0849L4.46465 14.238L4.68227 14.2308L4.65107 13.6974ZM7.45867 13.0698L4.61987 13.1641L4.68227 14.2308L7.52106 14.1366L7.45867 13.0698ZM4.99979 13.31L2.88253 11.3119L2.1851 12.0867L4.30235 14.0849L4.99979 13.31Z" fill="currentColor"/>
</svg>
